<?xml version="1.0" encoding="UTF-8"?>
<svg id="Layer_2" data-name="Layer 2" xmlns="http://www.w3.org/2000/svg" viewBox="0 0 82.02 89.37">
  <defs>
    <style>
      .cls-1 {
        fill: #fff;
      }

      .cls-2 {
        fill: #2ec4b6;
      }
    </style>
  </defs>
  <g id="Layer_1-2" data-name="Layer 1">
    <g>
      <path class="cls-2" d="m52.15,12c.12,0,.23.02.34.06,2.44,1,1.96,2.44,3.72,3.72,1.47,1.07,6.54,3.18,8.01,3.34.13.01.26.02.38.02,1.15,0,1.81-.59,2.93-.59.46,0,1,.1,1.69.38.93.38,1.25,2.41-.03,3.86-.23.26-.63.44-1.04.56-.61.18-.9.87-.59,1.43.21.39.38.79.37,1.08-.07,1.63-1.38,2.83-2.33,2.83-.13,0-.25-.02-.36-.07-2.46-1.01-1.89-2.42-3.39-3.62-1.16-.93-6.84-3.28-8.3-3.43-.14-.01-.27-.02-.4-.02-1.16,0-1.87.57-2.98.57-.46,0-.99-.1-1.65-.37-.93-.38-1.29-2.55.03-3.85.24-.24.63-.41,1.02-.53.59-.18.87-.87.58-1.41-.19-.36-.34-.76-.34-1.12.04-1.53,1.4-2.83,2.35-2.83m0-12c-6.68,0-12.56,5.15-14.01,11.75-2.14,3.24-2.96,7.23-2.19,11.13.9,4.55,3.88,8.27,7.98,9.96,2.05.85,4.15,1.28,6.22,1.28.97,0,1.84-.09,2.59-.22.3.12.61.25.91.38,1.25,1.76,3.38,3.96,7.02,5.45,1.56.64,3.21.96,4.91.96,6.76,0,12.59-5.12,14.01-11.84,2.2-3.43,2.97-7.6,2.06-11.56-.99-4.3-3.93-7.83-7.87-9.45-2.07-.86-4.18-1.29-6.26-1.29-.96,0-1.82.09-2.57.22-.3-.12-.61-.26-.9-.38-1.21-1.65-3.34-3.92-7.02-5.43-1.55-.64-3.19-.96-4.88-.96h0Z"/>
      <g>
        <path class="cls-1" d="m45.28,83.37c-4.54,0-7.99-.92-10.61-2.25-1.25.91-2.84,1.47-4.65,1.59-1,.05-4.39.23-8.12.23-3.37,0-6.42-.14-7.93-.22-4.49-.28-7.61-3.42-7.82-7.8-.15-4.85-.15-16.26-.15-23.08s0-18.24.15-22.99v-.12c.22-4.31,3.08-7.27,7.47-7.74,2.09-.25,5.1-.25,8.28-.25,3.66,0,6.61.02,8.46.26,4.53.5,7.44,3.64,7.44,8.04v2.56c2.22-.64,4.71-.96,7.49-.96,16.72,0,18.05,11.4,18.05,26.3s-1.36,26.44-18.05,26.44Z"/>
        <path class="cls-2" d="m21.9,26.73c2.65,0,6.17,0,7.75.21,1.43.14,2.15.65,2.15,2.08v11.81c0,.62.5,1,1,1,.31,0,.61-.14.82-.44,2.37-3.5,6.6-4.76,11.66-4.76,9.4,0,12.05,3.01,12.05,20.3s-2.65,20.44-12.05,20.44c-5.06,0-9.29-1.33-11.66-4.87-.21-.31-.52-.45-.82-.45-.51,0-1,.38-1,1v1.6c0,1.58-1,2.01-2.15,2.08-1.29.07-4.45.21-7.75.21s-6.31-.14-7.6-.21c-1.15-.07-2.08-.5-2.15-2.08-.14-4.66-.14-16-.14-22.81s0-18.15.14-22.81c.07-1.44.72-1.94,2.15-2.08,1.72-.21,4.66-.21,7.6-.21m12.84,38.38c1.79,0,2.44-.72,2.58-2.37.07-1.08.14-2.94.14-5.81s-.07-4.73-.14-5.81c-.14-1.65-.79-2.37-2.58-2.37-2.08,0-2.87.5-2.94,3.01-.07,2.22-.07,3.8-.07,5.16s0,2.94.07,5.17c.07,2.51.86,3.01,2.94,3.01M21.9,14.73c-3.35,0-6.52,0-8.96.29C5.65,15.82.52,21.18.16,28.42v.12s0,.12,0,.12c-.15,4.85-.15,16.32-.15,23.18s0,18.33.15,23.18v.09s0,.09,0,.09c.34,7.48,5.85,13.03,13.39,13.51h.05s.05,0,.05,0c1.58.09,4.75.23,8.27.23,3.89,0,7.42-.18,8.41-.23h.05s.05,0,.05,0c1.59-.1,3.1-.43,4.49-.96,2.87,1,6.3,1.62,10.4,1.62s7.13-.47,9.92-1.47c4.18-1.51,7.48-4.17,9.82-7.92,3.58-5.75,4.32-13.37,4.32-23.05s-.74-17.31-4.35-23.03c-5.84-9.26-15.91-9.26-19.7-9.26-.73,0-1.44.02-2.12.06-1.61-5.23-6.13-8.98-12.09-9.66-2.2-.28-5.2-.3-9.17-.3h0Z"/>
        <path d="m21.9,26.73c2.65,0,6.17,0,7.75.21,1.43.14,2.15.65,2.15,2.08v11.81c0,.62.5,1,1,1,.31,0,.61-.14.82-.44,2.37-3.5,6.6-4.76,11.66-4.76,9.4,0,12.05,3.01,12.05,20.3s-2.65,20.44-12.05,20.44c-5.06,0-9.29-1.33-11.66-4.87-.21-.31-.52-.45-.82-.45-.51,0-1,.38-1,1v1.6c0,1.58-1,2.01-2.15,2.08-1.29.07-4.45.21-7.75.21s-6.31-.14-7.6-.21c-1.15-.07-2.08-.5-2.15-2.08-.14-4.66-.14-16-.14-22.81s0-18.15.14-22.81c.07-1.44.72-1.94,2.15-2.08,1.72-.21,4.66-.21,7.6-.21m12.84,38.38c1.79,0,2.44-.72,2.58-2.37.07-1.08.14-2.94.14-5.81s-.07-4.73-.14-5.81c-.14-1.65-.79-2.37-2.58-2.37-2.08,0-2.87.5-2.94,3.01-.07,2.22-.07,3.8-.07,5.16s0,2.94.07,5.17c.07,2.51.86,3.01,2.94,3.01m-12.84-44.38c-3.18,0-6.19,0-8.28.25-4.39.47-7.25,3.43-7.47,7.74v.06s0,.06,0,.06c-.15,4.75-.15,16.17-.15,22.99s0,18.24.15,22.99v.05s0,.05,0,.05c.2,4.38,3.32,7.51,7.77,7.79,1.56.09,4.61.23,7.98.23,3.73,0,7.13-.17,8.08-.22,1.83-.12,3.43-.68,4.69-1.59,2.62,1.33,6.08,2.25,10.62,2.25,3.16,0,10.55,0,14.64-6.57,2.45-3.94,3.41-9.51,3.41-19.88s-.96-15.92-3.43-19.83c-4.08-6.47-11.47-6.47-14.62-6.47-2.77,0-5.27.32-7.49.96v-2.56c0-4.4-2.92-7.54-7.44-8.04-1.84-.24-4.8-.26-8.46-.26h0Z"/>
      </g>
      <path class="cls-1" d="m65.58,34.69c-.91,0-1.8-.17-2.63-.51-3.23-1.32-4.51-3.4-5.15-4.6-1.17-.59-3.43-1.53-4.66-1.93-.68.2-1.7.47-2.99.47s-2.59-.27-3.94-.82c-2.24-.92-3.87-3.01-4.38-5.58-.53-2.72.21-5.5,1.99-7.57.39-4.41,4.15-8.15,8.32-8.15.91,0,1.78.17,2.61.51,3.25,1.33,4.54,3.48,5.17,4.51,0,.01.01.02.02.03.95.54,3.31,1.55,4.6,1.97.69-.21,1.69-.48,2.97-.48s2.61.27,3.98.84c2.18.9,3.75,2.82,4.31,5.26.63,2.73-.09,5.65-1.92,7.87-.39,4.47-4.1,8.17-8.3,8.17h0Z"/>
      <path d="m52.15,12c.12,0,.23.02.34.06,2.44,1,1.96,2.44,3.72,3.72,1.47,1.07,6.54,3.18,8.01,3.34.13.01.26.02.38.02,1.15,0,1.81-.59,2.93-.59.46,0,1,.1,1.69.38.93.38,1.25,2.41-.03,3.86-.23.26-.63.44-1.04.56-.61.18-.9.87-.59,1.43.21.39.38.79.37,1.08-.07,1.63-1.38,2.83-2.33,2.83-.13,0-.25-.02-.36-.07-2.46-1.01-1.89-2.42-3.39-3.62-1.16-.93-6.84-3.28-8.3-3.43-.14-.01-.27-.02-.4-.02-1.16,0-1.87.57-2.98.57-.46,0-.99-.1-1.65-.37-.93-.38-1.29-2.55.03-3.85.24-.24.63-.41,1.02-.53.59-.18.87-.87.58-1.41-.19-.36-.34-.76-.34-1.12.04-1.53,1.4-2.83,2.35-2.83m0-6c-4.17,0-7.94,3.75-8.32,8.15-1.78,2.07-2.53,4.85-1.99,7.57.51,2.57,2.14,4.65,4.38,5.57,1.34.55,2.63.82,3.94.82s2.31-.27,2.98-.47c1.23.4,3.5,1.33,4.66,1.93.64,1.2,1.93,3.28,5.15,4.6.83.34,1.72.52,2.63.52,4.19,0,7.91-3.7,8.3-8.17,1.83-2.22,2.55-5.14,1.92-7.87-.56-2.45-2.14-4.36-4.31-5.26-1.36-.56-2.66-.84-3.98-.84s-2.28.26-2.97.48c-1.28-.42-3.61-1.41-4.6-1.98,0,0-.01-.02-.02-.03-.62-1.03-1.92-3.18-5.17-4.52-.83-.34-1.7-.51-2.61-.51h0Z"/>
    </g>
  </g>
</svg>