<?xml version="1.0" encoding="UTF-8"?>
<svg id="Layer_2" data-name="Layer 2" xmlns="http://www.w3.org/2000/svg" viewBox="0 0 242.14 70.94">
  <defs>
    <style>
      .cls-1 {
        fill: #fff;
      }
    </style>
  </defs>
  <g id="Layer_1-2" data-name="Layer 1">
    <g>
      <g>
        <path class="cls-1" d="m37.28,64.87c-5.04,0-8.93-1.25-11.58-3.72-.37,1.81-1.78,2.93-3.93,3.07-.67.04-4.15.22-7.87.22-3.4,0-6.53-.15-7.71-.22-2.46-.16-3.93-1.61-4.04-3.99-.14-4.72-.14-16.1-.14-22.9s0-18.18.14-22.87c.12-2.42,1.45-3.76,3.95-4.01,1.8-.22,4.71-.22,7.8-.22,2.81,0,6.3,0,8.02.23,3.37.34,3.88,2.69,3.88,4.06v9.15c2.64-2.35,6.49-3.54,11.49-3.54,11.93,0,14.05,5.84,14.05,22.3,0,17.62-3.02,22.44-14.05,22.44Zm-11.37-16.32c.13.03.37.05.83.05.26,0,.42-.02.51-.04.03-.09.06-.24.08-.5.05-.74.14-2.51.14-5.64s-.09-4.9-.14-5.68c-.02-.23-.05-.38-.08-.46-.09-.02-.25-.04-.51-.04-.45,0-.7.03-.83.05-.04.14-.1.44-.11,1.01-.07,2.2-.07,3.74-.07,5.11s0,2.91.07,5.1c.02.58.07.88.11,1.02Z"/>
        <path d="m13.9,12.23c2.65,0,6.17,0,7.75.21,1.43.14,2.15.65,2.15,2.08v11.81c0,.62.5,1,1,1,.31,0,.61-.14.82-.44,2.37-3.5,6.6-4.76,11.66-4.76,9.4,0,12.05,3.01,12.05,20.3s-2.65,20.44-12.05,20.44c-5.06,0-9.29-1.33-11.66-4.87-.21-.31-.52-.45-.83-.45-.51,0-1,.38-1,1v1.6c0,1.58-1,2.01-2.15,2.08-1.29.07-4.45.21-7.75.21s-6.31-.14-7.6-.21c-1.15-.07-2.08-.5-2.15-2.08-.14-4.66-.14-16-.14-22.81s0-18.15.14-22.81c.07-1.44.72-1.94,2.15-2.08,1.72-.21,4.66-.21,7.6-.21m12.84,38.38c1.79,0,2.44-.72,2.58-2.37.07-1.08.14-2.94.14-5.81s-.07-4.73-.14-5.81c-.14-1.65-.79-2.37-2.58-2.37-2.08,0-2.87.5-2.94,3.01-.07,2.22-.07,3.8-.07,5.16s0,2.94.07,5.17c.07,2.51.86,3.01,2.94,3.01M13.9,8.23c-3.13,0-6.09,0-8.05.24C.94,8.98.23,12.73.15,14.32v.04s0,.04,0,.04c-.14,4.72-.14,16.12-.14,22.93s0,18.21.14,22.93v.03s0,.03,0,.03c.15,3.36,2.47,5.67,5.9,5.89,1.23.07,4.4.22,7.85.22,3.68,0,7.03-.17,7.97-.22,1.92-.12,3.48-.85,4.51-2.03,2.83,1.78,6.48,2.68,10.91,2.68,4.67,0,9.86-.67,12.94-5.62,2.24-3.59,3.11-8.86,3.11-18.82s-.87-15.21-3.12-18.77c-3.08-4.88-8.26-5.53-12.93-5.53-3.73,0-6.9.62-9.49,1.85v-5.45c0-1.28-.41-5.49-5.68-6.05-1.72-.22-4.62-.24-8.22-.24h0Zm13.94,28.6h0s0,0,0,0h0Z"/>
      </g>
      <g>
        <path class="cls-1" d="m102.49,68.94c-1.46,0-6.58-.02-10.82-.29-10.71-.71-13.64-3.68-13.64-13.83,0-.9,0-2.85,1.98-3.6-1.25-.57-1.98-1.78-1.98-3.43v-9.32c0-10.15,2.93-13.12,13.63-13.83,4.23-.27,9.35-.29,10.82-.29,3.03,0,7.46.08,10.82.29,10.71.71,13.64,3.68,13.64,13.83,0,.91,0,2.89-2.03,3.62,1.3.58,2.03,1.78,2.03,3.41v9.32c0,10.15-2.93,13.12-13.63,13.83-3.37.21-7.8.29-10.82.29Zm-.77-13.43c.17.02.41.03.77.03.28,0,.49-.01.65-.03v-3.86c-.89,0-1.76,0-2.6,0,.55.43.9,1.11,1.06,2.24.04.36.07.72.09,1.07.01.19.02.38.04.55Zm2.73-13.88c-.55-.43-.92-1.12-1.08-2.24-.04-.36-.07-.72-.09-1.07-.01-.19-.02-.38-.04-.54-.16-.02-.41-.04-.77-.04-.28,0-.49,0-.65.02v3.87c.9,0,1.77,0,2.62,0Z"/>
        <path d="m102.49,26.34c2.94,0,7.32.07,10.69.29,9.76.64,11.76,2.87,11.76,11.84,0,1.22-.07,1.72-1.29,1.86-2.87.07-6.6.07-8.75.07s-6.74,0-8.18-.07c-1.15-.14-1.22-.22-1.36-1.22-.07-.57-.07-1.29-.14-1.79-.14-1.22-.86-1.58-2.73-1.58-2.01,0-2.65.43-2.65,1.58v5.31c0,.86.21,1,.72,1,4.81,0,21.23,0,22.6.07,1.22.07,1.79.57,1.79,1.79v9.32c0,8.97-2.01,11.19-11.76,11.84-3.37.21-7.75.29-10.69.29s-7.32-.07-10.69-.29c-9.75-.64-11.76-2.87-11.76-11.84,0-1.22.07-1.72,1.29-1.86,2.87-.07,6.6-.07,8.75-.07s6.74,0,8.18.07c1.15.14,1.22.21,1.36,1.22.07.57.07,1.29.14,1.79.14,1.22.79,1.58,2.73,1.58s2.65-.43,2.65-1.58v-5.31c0-.86-.22-1-.72-1-4.88,0-21.23,0-22.6-.07-1.22,0-1.79-.57-1.79-1.79v-9.32c0-8.97,2.01-11.19,11.76-11.84,3.37-.22,7.67-.29,10.69-.29m0-4c-1.49,0-6.66.02-10.94.3-11.74.78-15.51,4.62-15.51,15.83v9.32c0,1.29.34,2.44.95,3.36-.57.86-.95,2.04-.95,3.67,0,11.21,3.77,15.05,15.5,15.83,4.31.27,9.47.3,10.95.3,3.05,0,7.53-.08,10.94-.3,11.74-.78,15.51-4.62,15.51-15.83v-9.32c0-1.3-.34-2.45-.95-3.37.57-.86.95-2.04.95-3.66,0-11.21-3.77-15.05-15.5-15.83-4.29-.27-9.47-.3-10.95-.3h0Z"/>
      </g>
      <g>
        <path class="cls-1" d="m167.2,64.44c-2.11,0-5.64,0-8.13-.3-3.02-.33-4.09-1.71-5.33-4.65l-2-4.79c-.02,1.91-.05,3.8-.11,5.51-.11,2.4-1.58,3.85-4.03,4.01-.99.05-3.96.22-7.66.22s-6.67-.16-7.64-.22c-2.46-.16-3.93-1.61-4.04-3.99-.15-4.72-.15-16.1-.15-22.9s0-18.18.14-22.87c.12-2.42,1.45-3.76,3.95-4.01,1.8-.22,4.95-.22,7.73-.22s5.93,0,7.78.23c2.45.24,3.78,1.58,3.9,3.96.09,2.78.13,9.71.14,16.13l1.97-4.74c1.24-2.96,2.31-4.33,5.36-4.67,2.47-.3,6-.3,8.11-.3,1.81,0,4.74.06,7.03.22,1.02.07,2.33.27,3.28,1.23.94.94.94,2.1.94,2.49,0,1.05-.45,2.15-1.22,3.69l-6.88,14.17,6.89,14.19c.76,1.52,1.21,2.62,1.21,3.67,0,.38,0,1.55-.95,2.49-.95.95-2.26,1.16-3.29,1.22-2.28.16-5.21.22-7.02.22Z"/>
        <path d="m139.94,12.23c2.65,0,5.81,0,7.53.21,1.44.14,2.08.65,2.15,2.08.12,3.42.14,13.34.14,21.03,0,.63.5,1,1.01,1,.37,0,.74-.19.91-.62l3.89-9.36c1.15-2.73,1.79-3.23,3.73-3.44,2.37-.29,5.81-.29,7.89-.29s4.88.07,6.89.21c1.08.07,1.65.29,2.01.65.29.29.36.64.36,1.08,0,.57-.29,1.36-1,2.8l-7.32,15.06,7.32,15.06c.72,1.43,1,2.22,1,2.8,0,.43-.07.79-.36,1.08-.36.36-.93.57-2.01.65-2.01.14-4.81.21-6.89.21s-5.52,0-7.89-.29c-1.94-.21-2.58-.72-3.73-3.44l-3.89-9.32c-.18-.42-.54-.62-.91-.62-.51,0-1.01.37-1.01,1,0,3.9-.04,7.42-.14,10.37-.07,1.58-1,2.01-2.15,2.08-1.29.07-4.09.21-7.53.21s-6.24-.14-7.53-.21c-1.15-.07-2.08-.5-2.15-2.08-.14-4.66-.14-16-.14-22.81s0-18.15.14-22.81c.07-1.44.72-1.94,2.15-2.08,1.72-.21,4.88-.21,7.53-.21m0-4c-2.82,0-6.01,0-7.98.24-4.9.52-5.62,4.27-5.7,5.86v.04s0,.04,0,.04c-.15,4.72-.15,16.12-.15,22.93s0,18.21.15,22.93v.03s0,.03,0,.03c.15,3.36,2.47,5.68,5.9,5.89,1.02.06,4.04.22,7.78.22s6.76-.17,7.75-.22c2.58-.16,4.53-1.49,5.41-3.55,1.23,1.95,2.86,3.14,5.76,3.46,2.57.31,6.18.31,8.33.31,1.85,0,4.83-.06,7.17-.22,1.26-.08,3.11-.37,4.56-1.81,1.01-1.01,1.53-2.32,1.53-3.9,0-1.45-.52-2.78-1.43-4.59l-6.45-13.27,6.47-13.32c.88-1.77,1.41-3.1,1.41-4.55,0-1.58-.52-2.89-1.54-3.91-1.43-1.44-3.29-1.72-4.56-1.8-2.32-.16-5.31-.22-7.15-.22-2.16,0-5.77,0-8.37.32-2.41.27-3.94,1.15-5.1,2.58-.02-3.56-.06-5.97-.11-7.35v-.03s0-.03,0-.03c-.08-1.59-.8-5.34-5.7-5.85-1.97-.24-5.16-.24-7.98-.24h0Z"/>
      </g>
      <g>
        <path class="cls-1" d="m190.58,59.44c-3.05,0-6.51,0-8.35-.23-2.45-.25-3.78-1.58-3.9-3.96-.15-5.38-.15-9.51-.15-17.75,0-7.79,0-12.08.14-17.41.07-1.39.59-3,2.51-3.7-.83-.21-1.58-.77-2.13-1.61-.91-1.37-1.08-3.16-.44-4.66.13-.3.3-.59.53-.87-.24-.3-.42-.62-.55-.95-.58-1.5-.35-3.35.58-4.71.69-1.01,1.68-1.59,2.71-1.59,1.97,0,2.82.25,3.91.64.4.14.81.29,1.42.44.56.14,2.11.28,4.21.28h0c1.96,0,3.14-.13,3.43-.21.47-.14.79-.27,1.12-.41,1.04-.44,1.87-.73,3.97-.73,1.06,0,2.06.56,2.75,1.54.92,1.3,1.15,3.1.6,4.7-.12.36-.32.69-.58,1.02.26.31.45.63.57.95.57,1.57.35,3.37-.58,4.7-.53.76-1.24,1.27-2.01,1.47,1.91.69,2.43,2.31,2.5,3.66.15,5.38.15,9.67.15,17.46,0,8.23,0,12.37-.14,17.7-.08,1.68-.83,3.7-3.95,4.02-1.8.22-5.11.22-8.31.22Zm-.09-44.35c-2.09,0-3.49.13-3.81.22-.48.14-.81.28-1.16.42-.13.05-.25.1-.38.15,1.67-.05,3.62-.05,5.44-.05s3.8,0,5.43.05c-.12-.05-.23-.09-.35-.14-.33-.14-.65-.27-1.12-.41-.35-.1-1.83-.24-4.05-.24Z"/>
        <path d="m181.57,4c2.62,0,2.73.51,4.83,1.03.92.22,2.84.34,4.68.34,1.69,0,3.31-.1,3.99-.3,1.85-.54,1.82-1.07,4.53-1.07,0,0,.02,0,.02,0,1.01,0,2.07,1.76,1.44,3.58-.11.33-.42.64-.75.91-.49.4-.5,1.15,0,1.55.34.28.65.59.75.86.64,1.74-.43,3.58-1.44,3.58h-.02c-2.64,0-2.65-.52-4.49-1.06-.73-.21-2.68-.32-4.61-.32-1.85,0-3.68.1-4.37.3-1.87.54-1.94,1.08-4.56,1.08h-.02c-1.01,0-2.16-1.87-1.43-3.58.13-.31.42-.62.74-.88.48-.4.48-1.13,0-1.53-.32-.26-.61-.57-.74-.91-.62-1.61.43-3.58,1.43-3.58,0,0,.02,0,.02,0m9.02,13.84c3.01,0,6.38,0,8.11.21,1.43.14,2.08.65,2.15,2.08.14,5.31.14,9.47.14,17.36s0,12.34-.14,17.65c-.07,1.43-.72,1.94-2.15,2.08-1.72.21-5.09.21-8.11.21s-6.38,0-8.11-.21c-1.43-.14-2.08-.65-2.15-2.08-.14-5.31-.14-9.47-.14-17.65s0-12.05.14-17.36c.07-1.43.72-1.94,2.15-2.08,1.72-.21,5.17-.21,8.11-.21M199.6,0c-2.47,0-3.57.39-4.76.9-.29.13-.51.22-.84.32-.24.04-1.18.15-2.92.15-1.91,0-3.36-.13-3.73-.22-.5-.12-.83-.24-1.22-.38-1.21-.43-2.31-.76-4.56-.76-1.73,0-3.32.9-4.39,2.46-1.31,1.92-1.62,4.43-.8,6.56.03.08.06.15.09.23-.01.03-.03.06-.04.1-.9,2.11-.66,4.62.61,6.54.14.2.28.4.43.58-.89,1.24-1.1,2.65-1.14,3.48v.05s0,.05,0,.05c-.15,5.36-.15,9.66-.15,17.47,0,8.25,0,12.39.15,17.75v.05s0,.05,0,.05c.08,1.59.79,5.34,5.7,5.86,1.98.24,5.47.24,8.56.24,3.24,0,6.58,0,8.56-.24,4.9-.52,5.62-4.27,5.7-5.86v-.05s0-.05,0-.05c.15-5.36.15-9.5.15-17.75,0-7.81,0-12.1-.15-17.47v-.05s0-.05,0-.05c-.04-.83-.26-2.25-1.15-3.49.1-.13.21-.26.3-.4,1.3-1.86,1.61-4.36.82-6.53-.04-.1-.07-.19-.11-.29.05-.11.09-.23.13-.34.78-2.23.46-4.66-.85-6.52C202.91.87,201.32,0,199.63,0h-.03Z"/>
      </g>
      <g>
        <path class="cls-1" d="m229.67,65.8c-16.07,0-20.72-4.63-20.72-20.65v-6.39h0c-3.3,0-4.82-1.41-4.94-4.58-.07-1.08-.07-2.5-.07-3.88s0-2.72.08-3.92c.12-3.12,1.64-4.53,4.94-4.53h0c.06-8.09,3.83-9.54,14.27-9.54,4.82,0,9.53.49,9.53,6.3v3.24h2.38c3.3,0,4.82,1.41,4.94,4.58.07,1.16.07,2.48.07,3.88s0,2.79-.08,3.94c-.11,3.11-1.64,4.52-4.94,4.52h-2.38v8.9c0,.45,0,.76.02.96.51.05,1.34.05,1.71.05,5.12,0,5.66,2.29,5.66,7.52,0,2.11,0,3.64-.16,4.91-.53,4.49-3.72,4.69-10.3,4.69Z"/>
        <path d="m223.22,14.3c6.31,0,7.53,1.22,7.53,4.3v5.24h4.38c2.37,0,2.87.72,2.94,2.65.07,1.15.07,2.44.07,3.8s0,2.73-.07,3.8c-.07,1.94-.57,2.65-2.94,2.65h-4.38v10.9c0,2.8.29,3.01,3.73,3.01,3.23,0,3.66.36,3.66,5.52,0,2.08,0,3.51-.14,4.66-.29,2.44-1,2.94-8.32,2.94-15.13,0-18.72-3.8-18.72-18.65v-8.39h-2.01c-2.37,0-2.87-.72-2.94-2.65-.07-1.08-.07-2.44-.07-3.8s0-2.65.07-3.8c.07-1.94.57-2.65,2.94-2.65h2.01v-1.79c0-6.24,1.65-7.75,12.27-7.75m0-4c-5.57,0-9.57.37-12.33,2.2-2.97,1.97-3.7,5.12-3.88,7.51-3.14.59-4.86,2.73-5,6.28-.08,1.26-.08,2.59-.08,4s0,2.82.08,4.01c.15,3.52,1.85,5.66,4.94,6.26v4.57c0,6.67.59,13.42,4.85,17.71,4.31,4.34,11.14,4.94,17.87,4.94,6.19,0,11.53,0,12.29-6.48.17-1.36.17-2.94.17-5.13,0-2.96-.1-5.2-1.33-6.98-1.68-2.41-4.33-2.53-6.05-2.54v-5.92h.38c4.36,0,6.76-2.23,6.94-6.44.08-1.2.08-2.63.08-4.01s0-2.75-.08-4c-.18-4.22-2.57-6.45-6.94-6.45h-.38v-1.24c0-8.3-7.79-8.3-11.53-8.3h0Z"/>
      </g>
      <g>
        <path class="cls-1" d="m64.7,61.44c-3.05,0-6.51,0-8.35-.23-2.45-.25-3.78-1.58-3.9-3.96-.15-5.38-.15-9.51-.15-17.75,0-7.79,0-12.08.14-17.41.07-1.39.59-3,2.51-3.7-.83-.21-1.58-.77-2.13-1.61-.91-1.37-1.08-3.16-.44-4.66.13-.3.3-.59.53-.87-.24-.3-.42-.62-.55-.95-.58-1.5-.35-3.35.58-4.71.69-1.01,1.68-1.58,2.71-1.59,1.97,0,2.82.25,3.91.64.4.14.81.29,1.42.44.56.14,2.11.28,4.21.28h0c1.96,0,3.14-.13,3.43-.21.47-.14.79-.27,1.12-.41,1.04-.44,1.87-.73,3.97-.73,1.06,0,2.06.56,2.75,1.54.92,1.3,1.15,3.1.6,4.7-.12.36-.32.69-.58,1.02.26.31.45.63.57.95.57,1.57.35,3.37-.58,4.7-.53.76-1.24,1.27-2.01,1.47,1.91.69,2.43,2.31,2.5,3.66.15,5.38.15,9.67.15,17.46,0,8.23,0,12.37-.14,17.7-.08,1.68-.83,3.7-3.95,4.02-1.8.22-5.11.22-8.31.22Zm-.09-44.35c-2.09,0-3.49.13-3.81.22-.48.14-.81.28-1.16.42-.13.05-.25.1-.38.15,1.67-.05,3.62-.05,5.44-.05s3.8,0,5.43.05c-.12-.05-.23-.09-.35-.14-.33-.14-.65-.27-1.12-.41-.35-.1-1.83-.24-4.05-.24Z"/>
        <path d="m55.69,6c2.62,0,2.73.51,4.83,1.03.92.22,2.84.34,4.68.34,1.69,0,3.31-.1,3.99-.3,1.85-.54,1.82-1.07,4.53-1.07,0,0,.02,0,.02,0,1.01,0,2.07,1.76,1.44,3.58-.11.33-.42.64-.75.91-.49.4-.5,1.15,0,1.55.34.28.65.59.75.86.64,1.74-.43,3.58-1.44,3.58h-.02c-2.64,0-2.65-.52-4.49-1.06-.73-.21-2.68-.32-4.61-.32-1.85,0-3.68.1-4.37.3-1.87.54-1.94,1.08-4.56,1.08h-.02c-1.01,0-2.16-1.87-1.43-3.58.13-.31.42-.62.74-.88.48-.4.48-1.13,0-1.53-.32-.26-.61-.57-.74-.91-.62-1.61.43-3.58,1.43-3.58,0,0,.02,0,.02,0m9.02,13.84c3.01,0,6.38,0,8.11.21,1.43.14,2.08.65,2.15,2.08.14,5.31.14,9.47.14,17.36s0,12.34-.14,17.65c-.07,1.43-.72,1.94-2.15,2.08-1.72.21-5.09.21-8.11.21s-6.38,0-8.11-.21c-1.43-.14-2.08-.65-2.15-2.08-.14-5.31-.14-9.47-.14-17.65s0-12.05.14-17.36c.07-1.43.72-1.94,2.15-2.08,1.72-.21,5.17-.21,8.11-.21m9.01-17.84c-2.47,0-3.57.39-4.75.9-.29.13-.51.22-.84.32-.24.04-1.18.15-2.92.15-1.91,0-3.36-.13-3.73-.22-.5-.12-.83-.24-1.22-.38-1.21-.43-2.31-.76-4.56-.76-1.73,0-3.32.9-4.39,2.46-1.31,1.92-1.62,4.43-.8,6.56.03.08.06.15.09.23-.01.03-.03.06-.04.09-.9,2.11-.66,4.62.61,6.55.14.21.28.4.43.58-.89,1.24-1.1,2.65-1.14,3.48v.05s0,.05,0,.05c-.15,5.36-.15,9.66-.15,17.47,0,8.25,0,12.39.15,17.75v.05s0,.05,0,.05c.08,1.59.79,5.34,5.7,5.86,1.98.24,5.47.24,8.56.24,3.24,0,6.58,0,8.56-.24,4.9-.52,5.62-4.27,5.7-5.86v-.05s0-.05,0-.05c.15-5.36.15-9.5.15-17.75,0-7.81,0-12.1-.15-17.47v-.05s0-.05,0-.05c-.04-.83-.26-2.25-1.15-3.49.1-.13.21-.26.3-.4,1.3-1.86,1.61-4.36.82-6.53-.04-.1-.07-.19-.11-.29.05-.11.09-.23.13-.34.78-2.23.46-4.67-.85-6.52-1.07-1.51-2.66-2.38-4.35-2.38h-.03Z"/>
      </g>
    </g>
  </g>
</svg>